<svg viewBox="0 0 48 48" fill="none" xmlns="http://www.w3.org/2000/svg">
<circle cx="24" cy="24" r="23" stroke="black" stroke-width="2"/>
<path d="M25 12H23C22.2044 12 21.4413 12.3161 20.8787 12.8787C20.3161 13.4413 20 14.2044 20 15V16H14C13.7348 16 13.4804 16.1054 13.2929 16.2929C13.1054 16.4804 13 16.7348 13 17C13 17.2652 13.1054 17.5196 13.2929 17.7071C13.4804 17.8946 13.7348 18 14 18H15V32C15 33.0609 15.4214 34.0783 16.1716 34.8284C16.9217 35.5786 17.9391 36 19 36H29C30.0609 36 31.0783 35.5786 31.8284 34.8284C32.5786 34.0783 33 33.0609 33 32V18H34C34.2652 18 34.5196 17.8946 34.7071 17.7071C34.8946 17.5196 35 17.2652 35 17C35 16.7348 34.8946 16.4804 34.7071 16.2929C34.5196 16.1054 34.2652 16 34 16H28V15C28 14.2044 27.6839 13.4413 27.1213 12.8787C26.5587 12.3161 25.7956 12 25 12ZM22 15C22 14.7348 22.1054 14.4804 22.2929 14.2929C22.4804 14.1054 22.7348 14 23 14H25C25.2652 14 25.5196 14.1054 25.7071 14.2929C25.8946 14.4804 26 14.7348 26 15V16H22V15ZM31 32C31 32.5304 30.7893 33.0391 30.4142 33.4142C30.0391 33.7893 29.5304 34 29 34H19C18.4696 34 17.9609 33.7893 17.5858 33.4142C17.2107 33.0391 17 32.5304 17 32V18H31V32Z" fill="black"/>
<path d="M24 21C23.7348 21 23.4804 21.1054 23.2929 21.2929C23.1054 21.4804 23 21.7348 23 22V30C23 30.2652 23.1054 30.5196 23.2929 30.7071C23.4804 30.8946 23.7348 31 24 31C24.2652 31 24.5196 30.8946 24.7071 30.7071C24.8946 30.5196 25 30.2652 25 30V22C25 21.7348 24.8946 21.4804 24.7071 21.2929C24.5196 21.1054 24.2652 21 24 21Z" fill="black"/>
<path d="M27 30C27 30.2652 27.1054 30.5196 27.2929 30.7071C27.4804 30.8946 27.7348 31 28 31C28.2652 31 28.5196 30.8946 28.7071 30.7071C28.8946 30.5196 29 30.2652 29 30V22C29 21.7348 28.8946 21.4804 28.7071 21.2929C28.5196 21.1054 28.2652 21 28 21C27.7348 21 27.4804 21.1054 27.2929 21.2929C27.1054 21.4804 27 21.7348 27 22V30Z" fill="black"/>
<path d="M20 21C19.7348 21 19.4804 21.1054 19.2929 21.2929C19.1054 21.4804 19 21.7348 19 22V30C19 30.2652 19.1054 30.5196 19.2929 30.7071C19.4804 30.8946 19.7348 31 20 31C20.2652 31 20.5196 30.8946 20.7071 30.7071C20.8946 30.5196 21 30.2652 21 30V22C21 21.7348 20.8946 21.4804 20.7071 21.2929C20.5196 21.1054 20.2652 21 20 21Z" fill="black"/>
</svg>
